<svg id="Layer_2" data-name="Layer 2" xmlns="http://www.w3.org/2000/svg" viewBox="0 0 680 123.11"><defs><style>.cls-1{fill:#fff;}.cls-2{fill:#f6faf5;}.cls-3{fill:#f9fbf7;}.cls-4{fill:#fdfdf7;}</style></defs><polygon class="cls-1" points="428.23 29.25 421.56 73.71 414.94 29.25 400.59 29.25 413.01 104.39 429.95 104.39 442.59 29.25 428.23 29.25"/><path class="cls-1" d="M447.13,29.25l-11.82,75.14h14.27L452,88h7l2.33,16.38h14.37L464.1,29.25Zm6.94,44.44,1.49-11.35L457,73.69Z"/><polygon class="cls-1" points="503.03 64.8 493.23 29.19 478.68 29.19 478.68 104.39 492.47 104.39 492.47 69.94 502.79 104.39 516.83 104.39 516.83 29.19 503.03 29.19 503.03 64.8"/><path class="cls-1" d="M538.13,29.19H520.58v75.2h17.55a16.34,16.34,0,0,0,12.47-5.63,19.2,19.2,0,0,0,5.08-13.36V48.13a19.2,19.2,0,0,0-5-13.3,16.32,16.32,0,0,0-12.5-5.64m.32,60.71h-4.07V44h4.07A3.25,3.25,0,0,1,541,45.22a4.36,4.36,0,0,1,1.16,3.08V85.63A4.5,4.5,0,0,1,541,88.71a3.23,3.23,0,0,1-2.55,1.19"/><polygon class="cls-1" points="573.01 29.25 559.22 29.25 559.22 104.39 590.16 104.39 590.16 89.84 573.01 89.84 573.01 29.25"/><polygon class="cls-1" points="593.49 104.39 625.64 104.39 625.64 89.73 607.28 89.73 607.28 74.13 620.69 74.13 620.69 59.46 607.28 59.46 607.28 43.86 625.64 43.86 625.64 29.19 593.49 29.19 593.49 104.39"/><polygon class="cls-1" points="655.11 29.19 649.25 49.73 643.34 29.19 628.3 29.19 642.33 72.9 642.33 104.39 656.12 104.39 656.12 72.9 670.2 29.19 655.11 29.19"/><polygon class="cls-1" points="418.68 25.83 423.16 25.83 430.62 8.06 421.3 8.06 418.68 25.83"/><path class="cls-2" d="M359.08,79.57a22.87,22.87,0,0,1-5.56,2.62,19.11,19.11,0,0,1-5.75.9A10.82,10.82,0,0,1,340,80.2,9.57,9.57,0,0,1,337,73a9,9,0,0,1,2.49-6.27,20.62,20.62,0,0,1,7.69-4.78,18,18,0,0,1-1.66-3.64,11.29,11.29,0,0,1-.55-3.36A9.08,9.08,0,0,1,347.84,48a10.25,10.25,0,0,1,7.32-2.75,11.67,11.67,0,0,1,7.09,1.95,6.1,6.1,0,0,1,2.64,5.15,6.73,6.73,0,0,1-2.09,4.87,20.29,20.29,0,0,1-6.65,4c1.21,2.07,2.41,4,3.58,5.7s2.37,3.36,3.57,4.86a11.55,11.55,0,0,0,1.73-2.7,6.06,6.06,0,0,0,.64-2.46,2,2,0,0,0-1-1.81,5.7,5.7,0,0,0-3-.61h-.51v-2.5h13.45v2.5a7.94,7.94,0,0,0-3.16.51,4.5,4.5,0,0,0-1.95,1.72q-.35.52-1.8,3.27a23.67,23.67,0,0,1-2.86,4.36,15.85,15.85,0,0,0,2.73,2.8,3.8,3.8,0,0,0,2.22.78,2.9,2.9,0,0,0,2.29-1.11,8,8,0,0,0,1.44-3.37l2.27.8a13,13,0,0,1-3.08,6.74,7.94,7.94,0,0,1-5.83,2.15,9.93,9.93,0,0,1-4-.82A15.25,15.25,0,0,1,359.08,79.57ZM357,77.64a39.84,39.84,0,0,1-4.1-5.37q-2.2-3.36-4.67-8a5.21,5.21,0,0,0-2,1.9,5.13,5.13,0,0,0-.7,2.7,9.81,9.81,0,0,0,.47,2.8,14.26,14.26,0,0,0,1.32,3,9.87,9.87,0,0,0,2.83,3.2,5.93,5.93,0,0,0,3.42,1.06,5.37,5.37,0,0,0,1.89-.33A5,5,0,0,0,357,77.64Zm-2.23-18.51a9.84,9.84,0,0,0,3.69-2.84,6.14,6.14,0,0,0,1.18-3.77,4.65,4.65,0,0,0-1.12-3.27A3.75,3.75,0,0,0,355.57,48a3.38,3.38,0,0,0-3.73,3.73,9,9,0,0,0,.71,3.23A25.47,25.47,0,0,0,354.77,59.13Z"/><path class="cls-3" d="M39,92.34c-.29-.29-.64-.6-1-.92a17.78,17.78,0,0,1-1.36-1.26,16.17,16.17,0,0,1-4-9.36L18.18,92.34Q9.8,85.92,9.8,78.84q0-8.93,8.71-18.61L20,58.49,10.67,41.73c0,.07.11.1.33.1h.54a.28.28,0,0,0,.22.11H13a19.91,19.91,0,0,0,13.27-4.57l.44.22.65.33q8.18,4.24,13.61,4.24a7.29,7.29,0,0,0,4.9-2.39l1.41.87q-3.7,5.65-3.81,10.77c-.07.8-.11,1.64-.11,2.51V79.17c.08,2.61,1,4,2.73,4.24a8.33,8.33,0,0,0,2.61-.87l.22-.21.1-.11a.62.62,0,0,0,.44-.22l1.09,1.31ZM14.15,43.69l8.06,14.58,10.34,4.46V49.78ZM21.23,60c-.22,0-.58,1.09-1.09,3.27A39.53,39.53,0,0,0,18.83,72q0,5.66,6.75,11.86l7-5.77V64.91l-5.88-2.5Z"/><path class="cls-3" d="M63.46,37.26l9,8L68.9,48.37V79.71l4.79,3.81,7.62-7V48.37L77.5,45.21l8.82-8,9.14,8-3.59,3.16V78.52q0,4.89,2.83,4.89a3.44,3.44,0,0,0,2.5-1.08l1.64,1.74L88,92.34a13.46,13.46,0,0,1-5.66-6.42,17.39,17.39,0,0,1-1-6.42L67.05,92.34q-6.75-6.09-11.86-8.16V82.65c2-.72,3.05-2.43,3.05-5.11V48.8L56,47.06,53.77,48.8l-1.41-1.74Z"/><path class="cls-3" d="M114.4,71.66l-10.12-5.55V46.84a27.79,27.79,0,0,0,8-3.59q1.41-1.08,6.21-5.88,7.83,3.91,14.15,3.92a7,7,0,0,0,3.37-.76,3,3,0,0,0,2-2.72,3.44,3.44,0,0,0-1.09-2.51.1.1,0,0,1-.11-.11,4,4,0,0,1-1.19-2.93q0-3.16,3.15-3.16,3.91,0,3.92,4.57v1q-.54,3.27-4.68,9l-9.14,12.62L140,62.73V84a40.8,40.8,0,0,0-15,8.38q-6.64-4-12.08-4a17.34,17.34,0,0,0-10.89,4l-1.41-1.2ZM122.67,65,111.13,81.35l2.73-.77,1-.21c.28-.07.61-.15,1-.22h.54a4.87,4.87,0,0,0,.87-.11h2.07a1.52,1.52,0,0,1,.65.11q3.48.1,9,3.16V68.5Zm-2.39-1.63,10.34-14.48a10.77,10.77,0,0,1-3.16.44h-1.2a14.22,14.22,0,0,1-2.23-.17c-.69-.11-1.39-.23-2.12-.38a25.22,25.22,0,0,1-7-2.94V60.34Z"/><path class="cls-3" d="M175.36,37.26q7.5,4.47,8.27,12.19L198,37.26l2.61,2.18q4.24,3.81,5.22,7.73a33.93,33.93,0,0,1,.77,8.16V83.41q-10.89,3.7-16.33,8.93-7.74-5.11-13.83-5.12-5.55,0-10.34,5.12a30.8,30.8,0,0,0-19.26-7.84V83.31a6,6,0,0,0,1.74-.77Q151,81.13,151,77.43V54.68q0-7.08-3.7-10.78a12.06,12.06,0,0,1-2.39-7.07,10.87,10.87,0,0,1,3.81-8.06c.43-.36,1.27-1,2.5-1.9s2.9-2.05,5-3.43l1,1.52-.33.33a.65.65,0,0,1-.22.16.78.78,0,0,0-.21.17q-4.14,3.59-4.14,6.53c0,1.52.8,3.23,2.39,5.11.29.29.62.64,1,1s.8.85,1.31,1.36q4.46,5.12,4.57,9.69v-.11Zm-2.07,46.81V55.66a18.5,18.5,0,0,0-.66-5.77,11,11,0,0,0-3.7-4.35l-7.4,6.31V79.28Zm22.53-.66V56.09q0-5.76-2.29-8.6l-.87-1a11.41,11.41,0,0,0-1.19-1L184,51.74V78.63Z"/><path class="cls-3" d="M225.42,92.34c-1.88-2-3.68-3.66-5.38-5.12a36.68,36.68,0,0,0-5-3.59V82.54q3.49-1.19,3.49-7.07V47.6l-3.81-3.26,9-7.08,9,7.4L229.13,48V81.67l3,2.72,3.27-2.72,1.31,1.85Zm2-76.85,9,.33-9,12.3-2.61-.22Z"/><path class="cls-3" d="M258.4,92.34a34.64,34.64,0,0,0-16.32-5.88V85.05q3-2.07,3-8.17V54.68a7.67,7.67,0,0,0-.71-4c-.48-.69-1.65-1.15-3.54-1.36V47.93q8.26-2.51,16.76-10.56l12.63,7-5.44,7.94-9-5V80.37l9.36,4.24,4.68-3.7,1.09,1.42Z"/><path class="cls-3" d="M273.53,84.94l4.36-3.59V30.41q0-7.08-4.68-10.78l.87-1.52A29.73,29.73,0,0,1,282,23.66q4.47-5.11,12.63-6.53l.65,1.19a12.47,12.47,0,0,1-1.63,1.2q-4.89,3.48-4.9,10.78V49.67L304,37.37l2.4,2a12.58,12.58,0,0,1,4.57,7,34.38,34.38,0,0,1,.65,7.4V75.25q0,7.73-1.74,12.3a20.48,20.48,0,0,1-7.62,9.36q-5.34,4-19.81,9.8l-.65-2,1.85-.82,2.61-1.14q8.06-3.81,11.21-8.71,3-4.68,3-13.82V54c0-3.85-1.16-6.64-3.48-8.39l-8.28,6.54V81.35l3.49,3.92-9.58,7.18Z"/><path class="cls-4" d="M245.28,105V97.58h1v3h3.86v-3h1V105h-1v-3.5h-3.86V105Z"/><path class="cls-4" d="M252.65,98.63v-1h.91v1Zm0,6.38V99.62h.91V105Z"/><path class="cls-4" d="M254.58,103.4l.91-.14a1.26,1.26,0,0,0,.42.83,1.44,1.44,0,0,0,1,.29,1.47,1.47,0,0,0,.94-.25.77.77,0,0,0,.3-.6.56.56,0,0,0-.27-.49,3.76,3.76,0,0,0-.93-.31,9.15,9.15,0,0,1-1.4-.44,1.33,1.33,0,0,1-.78-1.23,1.42,1.42,0,0,1,.61-1.18,1.74,1.74,0,0,1,.58-.27,2.9,2.9,0,0,1,.79-.11,2.93,2.93,0,0,1,1.11.19,1.48,1.48,0,0,1,.71.49,2,2,0,0,1,.32.83l-.9.13a1,1,0,0,0-.35-.65,1.25,1.25,0,0,0-.82-.24,1.49,1.49,0,0,0-.9.21.61.61,0,0,0-.27.49.54.54,0,0,0,.11.32.73.73,0,0,0,.35.24c.09,0,.36.11.81.24a11.51,11.51,0,0,1,1.35.42,1.43,1.43,0,0,1,.6.48,1.31,1.31,0,0,1,.22.78,1.53,1.53,0,0,1-.27.86,1.65,1.65,0,0,1-.77.62,2.71,2.71,0,0,1-1.13.22,2.52,2.52,0,0,1-1.6-.43A2.05,2.05,0,0,1,254.58,103.4Z"/><path class="cls-4" d="M262.14,104.2l.13.8a3,3,0,0,1-.69.08,1.62,1.62,0,0,1-.77-.15,1,1,0,0,1-.39-.42,3.38,3.38,0,0,1-.11-1.07v-3.1h-.67v-.72h.67V98.29l.91-.55v1.88h.92v.72h-.92v3.15a1.65,1.65,0,0,0,0,.5.39.39,0,0,0,.16.18.63.63,0,0,0,.31.06Z"/><path class="cls-4" d="M262.69,102.32a2.79,2.79,0,0,1,.83-2.22,2.52,2.52,0,0,1,1.7-.6,2.43,2.43,0,0,1,1.81.73,2.79,2.79,0,0,1,.71,2,3.55,3.55,0,0,1-.31,1.64,2.13,2.13,0,0,1-.91.92,2.64,2.64,0,0,1-1.3.33,2.42,2.42,0,0,1-1.83-.72A2.87,2.87,0,0,1,262.69,102.32Zm.94,0a2.29,2.29,0,0,0,.45,1.55,1.52,1.52,0,0,0,2.27,0,2.36,2.36,0,0,0,.45-1.58,2.26,2.26,0,0,0-.45-1.52,1.52,1.52,0,0,0-2.27,0A2.29,2.29,0,0,0,263.63,102.32Z"/><path class="cls-4" d="M268.8,105V99.62h.82v.82a2.3,2.3,0,0,1,.58-.75,1,1,0,0,1,.59-.19,1.76,1.76,0,0,1,.94.3l-.32.84a1.29,1.29,0,0,0-.67-.19.83.83,0,0,0-.53.18.9.9,0,0,0-.34.5,3.27,3.27,0,0,0-.16,1.06V105Z"/><path class="cls-4" d="M272.23,107.09l-.1-.86a2.2,2.2,0,0,0,.52.08,1,1,0,0,0,.49-.1.89.89,0,0,0,.3-.28,6.66,6.66,0,0,0,.28-.68,1.61,1.61,0,0,1,.08-.23l-2.05-5.4h1l1.12,3.13c.14.39.27.81.39,1.24a11.54,11.54,0,0,1,.37-1.22l1.16-3.15h.91l-2.05,5.48a11.44,11.44,0,0,1-.51,1.23,1.88,1.88,0,0,1-.56.66,1.32,1.32,0,0,1-.75.21A2,2,0,0,1,272.23,107.09Z"/><rect class="cls-4" x="9.8" y="100.57" width="233.37" height="0.93"/></svg>